<?xml version="1.0" encoding="UTF-8"?>
<!DOCTYPE svg
PUBLIC "-//W3C//DTD SVG 1.1//EN"
       "http://www.w3.org/Graphics/SVG/1.1/DTD/svg11.dtd">
<svg viewBox="153 147 922 797" width="769px" height="650px" xmlns="http://www.w3.org/2000/svg" version="1.1">
   <line x1="472" y1="355" x2="462" y2="355" style="stroke:#c00;stroke-width:1;"/>
   <line x1="271" y1="225" x2="261" y2="225" style="stroke:#c00;stroke-width:1;"/>
   <line x1="462" y1="355" x2="271" y2="225" style="stroke:#c00;stroke-width:1;"/>
   <line x1="464.5" y1="355" x2="468.03553390593" y2="358.53553390593" style="stroke:#c00;stroke-width:2;"/>
   <line x1="464.5" y1="355" x2="468.03553390593" y2="351.46446609407" style="stroke:#c00;stroke-width:2;"/>
   <line x1="266" y1="225" x2="269.53553390593" y2="228.53553390593" style="stroke:#c00;stroke-width:2;"/>
   <line x1="266" y1="225" x2="269.53553390593" y2="221.46446609407" style="stroke:#c00;stroke-width:2;"/>
   <line x1="822" y1="192" x2="812" y2="192" style="stroke:#bbb;stroke-width:1;"/>
   <line x1="575" y1="235" x2="565" y2="235" style="stroke:#bbb;stroke-width:1;"/>
   <line x1="812" y1="192" x2="575" y2="235" style="stroke:#bbb;stroke-width:1;"/>
   <line x1="814.5" y1="192" x2="818.03553390593" y2="195.53553390593" style="stroke:#bbb;stroke-width:2;"/>
   <line x1="814.5" y1="192" x2="818.03553390593" y2="188.46446609407" style="stroke:#bbb;stroke-width:2;"/>
   <line x1="570" y1="235" x2="573.53553390593" y2="238.53553390593" style="stroke:#bbb;stroke-width:2;"/>
   <line x1="570" y1="235" x2="573.53553390593" y2="231.46446609407" style="stroke:#bbb;stroke-width:2;"/>
   <rect width="93" height="20" x="472" y="205" style="fill:#007;stroke:black;"/>
   <text width="93" height="20" x="477" y="219" style="fill:#fff;" font-family="Arial" font-size="16px"> bet</text>
   <rect width="93" height="20" x="472" y="225" style="fill:#aea;stroke:black;"/>
   <text width="93" height="20" x="477" y="239" style="fill:black;" font-family="Arial" font-size="16px">id</text>
   <rect width="93" height="20" x="472" y="245" style="fill:none;stroke:black;"/>
   <text width="93" height="20" x="477" y="259" style="fill:black;" font-family="Arial" font-size="16px">sport</text>
   <rect width="93" height="20" x="472" y="265" style="fill:none;stroke:black;"/>
   <text width="93" height="20" x="477" y="279" style="fill:black;" font-family="Arial" font-size="16px">bettor</text>
   <rect width="93" height="20" x="472" y="285" style="fill:none;stroke:black;"/>
   <text width="93" height="20" x="477" y="299" style="fill:black;" font-family="Arial" font-size="16px">home_win</text>
   <rect width="93" height="20" x="472" y="305" style="fill:none;stroke:black;"/>
   <text width="93" height="20" x="477" y="319" style="fill:black;" font-family="Arial" font-size="16px">away_win</text>
   <rect width="93" height="20" x="472" y="325" style="fill:none;stroke:black;"/>
   <text width="93" height="20" x="477" y="339" style="fill:black;" font-family="Arial" font-size="16px">created_at</text>
   <rect width="93" height="20" x="472" y="345" style="fill:none;stroke:black;"/>
   <text width="93" height="20" x="477" y="359" style="fill:black;" font-family="Arial" font-size="16px">game_id</text>
   <rect width="93" height="20" x="822" y="162" style="fill:#007;stroke:black;"/>
   <text width="93" height="20" x="827" y="176" style="fill:#fff;" font-family="Arial" font-size="16px"> football_bet</text>
   <rect width="93" height="20" x="822" y="182" style="fill:none;stroke:black;"/>
   <text width="93" height="20" x="827" y="196" style="fill:black;" font-family="Arial" font-size="16px">bet_id</text>
   <rect width="93" height="20" x="822" y="202" style="fill:none;stroke:black;"/>
   <text width="93" height="20" x="827" y="216" style="fill:black;" font-family="Arial" font-size="16px">draw</text>
   <rect width="93" height="20" x="822" y="222" style="fill:none;stroke:black;"/>
   <text width="93" height="20" x="827" y="236" style="fill:black;" font-family="Arial" font-size="16px">over_0,5</text>
   <rect width="93" height="20" x="822" y="242" style="fill:none;stroke:black;"/>
   <text width="93" height="20" x="827" y="256" style="fill:black;" font-family="Arial" font-size="16px">over_1,5</text>
   <rect width="93" height="20" x="822" y="262" style="fill:none;stroke:black;"/>
   <text width="93" height="20" x="827" y="276" style="fill:black;" font-family="Arial" font-size="16px">over_2,5</text>
   <rect width="93" height="20" x="822" y="282" style="fill:none;stroke:black;"/>
   <text width="93" height="20" x="827" y="296" style="fill:black;" font-family="Arial" font-size="16px">over_3,5</text>
   <rect width="93" height="20" x="822" y="302" style="fill:none;stroke:black;"/>
   <text width="93" height="20" x="827" y="316" style="fill:black;" font-family="Arial" font-size="16px">over_4,5</text>
   <rect width="93" height="20" x="822" y="322" style="fill:none;stroke:black;"/>
   <text width="93" height="20" x="827" y="336" style="fill:black;" font-family="Arial" font-size="16px">over_5,5</text>
   <rect width="93" height="20" x="822" y="342" style="fill:none;stroke:black;"/>
   <text width="93" height="20" x="827" y="356" style="fill:black;" font-family="Arial" font-size="16px">over_6,5</text>
   <rect width="93" height="20" x="822" y="362" style="fill:none;stroke:black;"/>
   <text width="93" height="20" x="827" y="376" style="fill:black;" font-family="Arial" font-size="16px">under_0,5</text>
   <rect width="93" height="20" x="822" y="382" style="fill:none;stroke:black;"/>
   <text width="93" height="20" x="827" y="396" style="fill:black;" font-family="Arial" font-size="16px">under_1,5</text>
   <rect width="93" height="20" x="822" y="402" style="fill:none;stroke:black;"/>
   <text width="93" height="20" x="827" y="416" style="fill:black;" font-family="Arial" font-size="16px">under_2,5</text>
   <rect width="93" height="20" x="822" y="422" style="fill:none;stroke:black;"/>
   <text width="93" height="20" x="827" y="436" style="fill:black;" font-family="Arial" font-size="16px">under_3,5</text>
   <rect width="93" height="20" x="822" y="442" style="fill:none;stroke:black;"/>
   <text width="93" height="20" x="827" y="456" style="fill:black;" font-family="Arial" font-size="16px">under_4,5</text>
   <rect width="93" height="20" x="822" y="462" style="fill:none;stroke:black;"/>
   <text width="93" height="20" x="827" y="476" style="fill:black;" font-family="Arial" font-size="16px">under_5,5</text>
   <rect width="93" height="20" x="822" y="482" style="fill:none;stroke:black;"/>
   <text width="93" height="20" x="827" y="496" style="fill:black;" font-family="Arial" font-size="16px">under_6,5</text>
   <rect width="93" height="20" x="822" y="502" style="fill:none;stroke:black;"/>
   <text width="93" height="20" x="827" y="516" style="fill:black;" font-family="Arial" font-size="16px">GG</text>
   <rect width="93" height="20" x="822" y="522" style="fill:none;stroke:black;"/>
   <text width="93" height="20" x="827" y="536" style="fill:black;" font-family="Arial" font-size="16px">NG</text>
   <rect width="93" height="20" x="822" y="542" style="fill:none;stroke:black;"/>
   <text width="93" height="20" x="827" y="556" style="fill:black;" font-family="Arial" font-size="16px">1X</text>
   <rect width="93" height="20" x="822" y="562" style="fill:none;stroke:black;"/>
   <text width="93" height="20" x="827" y="576" style="fill:black;" font-family="Arial" font-size="16px">2X</text>
   <rect width="93" height="20" x="822" y="582" style="fill:none;stroke:black;"/>
   <text width="93" height="20" x="827" y="596" style="fill:black;" font-family="Arial" font-size="16px">12</text>
   <rect width="93" height="20" x="822" y="602" style="fill:none;stroke:black;"/>
   <text width="93" height="20" x="827" y="616" style="fill:black;" font-family="Arial" font-size="16px">1/1</text>
   <rect width="93" height="20" x="822" y="622" style="fill:none;stroke:black;"/>
   <text width="93" height="20" x="827" y="636" style="fill:black;" font-family="Arial" font-size="16px">X/1</text>
   <rect width="93" height="20" x="822" y="642" style="fill:none;stroke:black;"/>
   <text width="93" height="20" x="827" y="656" style="fill:black;" font-family="Arial" font-size="16px">2/1</text>
   <rect width="93" height="20" x="822" y="662" style="fill:none;stroke:black;"/>
   <text width="93" height="20" x="827" y="676" style="fill:black;" font-family="Arial" font-size="16px">1/X</text>
   <rect width="93" height="20" x="822" y="682" style="fill:none;stroke:black;"/>
   <text width="93" height="20" x="827" y="696" style="fill:black;" font-family="Arial" font-size="16px">X/X</text>
   <rect width="93" height="20" x="822" y="702" style="fill:none;stroke:black;"/>
   <text width="93" height="20" x="827" y="716" style="fill:black;" font-family="Arial" font-size="16px">2/X</text>
   <rect width="93" height="20" x="822" y="722" style="fill:none;stroke:black;"/>
   <text width="93" height="20" x="827" y="736" style="fill:black;" font-family="Arial" font-size="16px">1/2</text>
   <rect width="93" height="20" x="822" y="742" style="fill:none;stroke:black;"/>
   <text width="93" height="20" x="827" y="756" style="fill:black;" font-family="Arial" font-size="16px">X/2</text>
   <rect width="93" height="20" x="822" y="762" style="fill:none;stroke:black;"/>
   <text width="93" height="20" x="827" y="776" style="fill:black;" font-family="Arial" font-size="16px">2/2</text>
   <rect width="93" height="20" x="168" y="195" style="fill:#007;stroke:black;"/>
   <text width="93" height="20" x="173" y="209" style="fill:#fff;" font-family="Arial" font-size="16px"> game</text>
   <rect width="93" height="20" x="168" y="215" style="fill:#aea;stroke:black;"/>
   <text width="93" height="20" x="173" y="229" style="fill:black;" font-family="Arial" font-size="16px">id</text>
   <rect width="93" height="20" x="168" y="235" style="fill:none;stroke:black;"/>
   <text width="93" height="20" x="173" y="249" style="fill:black;" font-family="Arial" font-size="16px">sport</text>
   <rect width="93" height="20" x="168" y="255" style="fill:none;stroke:black;"/>
   <text width="93" height="20" x="173" y="269" style="fill:black;" font-family="Arial" font-size="16px">bettor</text>
   <rect width="93" height="20" x="168" y="275" style="fill:none;stroke:black;"/>
   <text width="93" height="20" x="173" y="289" style="fill:black;" font-family="Arial" font-size="16px">match_code</text>
   <rect width="93" height="20" x="168" y="295" style="fill:none;stroke:black;"/>
   <text width="93" height="20" x="173" y="309" style="fill:black;" font-family="Arial" font-size="16px">event</text>
   <rect width="93" height="20" x="168" y="315" style="fill:none;stroke:black;"/>
   <text width="93" height="20" x="173" y="329" style="fill:black;" font-family="Arial" font-size="16px">opponents</text>
   <rect width="93" height="20" x="168" y="335" style="fill:none;stroke:black;"/>
   <text width="93" height="20" x="173" y="349" style="fill:black;" font-family="Arial" font-size="16px">date</text>
   <rect width="93" height="20" x="168" y="355" style="fill:none;stroke:black;"/>
   <text width="93" height="20" x="173" y="369" style="fill:black;" font-family="Arial" font-size="16px">time</text>
   <rect width="93" height="20" x="168" y="375" style="fill:none;stroke:black;"/>
   <text width="93" height="20" x="173" y="389" style="fill:black;" font-family="Arial" font-size="16px">created_at</text>
</svg>
